PathFileType	4	(X/Y/Z)	E:/New_biomech_experiments/MICROGRAVITY MOCAP/Session 2024-06-22/Neeraj_FullAction_pp_22_06_24_t02 (1).trc	
DataRate	CameraRate	NumFrames	NumMarkers	Units	OrigDataRate	OrigDataStartFrame	OrigNumFrames	
120.00	120.00	22	19	m	120.00	3790	7579	
Frame#	Time	RSHO			MarkerSet_RBAK			MarkerSet_LBHD			MarkerSet_RUPA			MarkerSet_PRSHO			MarkerSet_RELB			MarkerSet_CLAV			MarkerSet_RFHD			MarkerSet_LFHD			MarkerSet_C7			MarkerSet_RWRB			MarkerSet_RFRM			MarkerSet_RWRA			MarkerSet_MRELB			MarkerSet_DIA			MarkerSet_STRN			MarkerSet_ARSHO			MarkerSet_RBHD			MarkerSet_T10			
		X1	Y1	Z1	X2	Y2	Z2	X3	Y3	Z3	X4	Y4	Z4	X5	Y5	Z5	X6	Y6	Z6	X7	Y7	Z7	X8	Y8	Z8	X9	Y9	Z9	X10	Y10	Z10	X11	Y11	Z11	X12	Y12	Z12	X13	Y13	Z13	X14	Y14	Z14	X15	Y15	Z15	X16	Y16	Z16	X17	Y17	Z17	X18	Y18	Z18	X19	Y19	Z19	

3790	31.575	-0.05218	1.58418	0.08993	-0.10392	1.37170	0.02783	-0.03669	1.71570	-0.11373	-0.01730	1.58220	0.26709	-0.10308	1.48420	0.08965	-0.01662	1.60383	0.40061	0.10583	1.49162	-0.05809	0.05575	1.81105	0.03625	0.07514	1.82759	-0.06432	-0.09461	1.52660	-0.06663	-0.00154	1.62194	0.69806	0.00709	1.63219	0.53311	0.09496	1.63677	0.67281	0.06090	1.51292	0.41585	0.08407	1.18157	0.12925	0.14255	1.32985	-0.03441	0.06408	1.52972	0.08931	-0.06422	1.71329	-0.01228	-0.10405	1.33457	-0.04177 
3791	31.583	-0.05211	1.58423	0.08992	-0.10388	1.37168	0.02784	-0.03673	1.71534	-0.11356	-0.01725	1.58294	0.26762	-0.10303	1.48419	0.08966	-0.01665	1.60389	0.40062	0.10586	1.49162	-0.05807	0.05577	1.81102	0.03629	0.07516	1.82760	-0.06427	-0.09457	1.52659	-0.06662	-0.00156	1.62215	0.69803	0.00709	1.63233	0.53310	0.09498	1.63701	0.67278	0.06091	1.51305	0.41582	0.08410	1.18157	0.12927	0.14258	1.32983	-0.03439	0.06412	1.52973	0.08933	-0.06421	1.71333	-0.01229	-0.10408	1.33461	-0.04175 
3792	31.592	-0.05209	1.58423	0.08997	-0.10386	1.37170	0.02787	-0.03664	1.71570	-0.11368	-0.01730	1.58296	0.26759	-0.10302	1.48419	0.08968	-0.01665	1.60403	0.40059	0.10589	1.49163	-0.05807	0.05583	1.81103	0.03634	0.07522	1.82760	-0.06423	-0.09455	1.52659	-0.06659	-0.00151	1.62242	0.69801	0.00710	1.63247	0.53309	0.09498	1.63720	0.67278	0.06088	1.51313	0.41588	0.08414	1.18160	0.12931	0.14261	1.32984	-0.03437	0.06418	1.52974	0.08933	-0.06413	1.71334	-0.01222	-0.10408	1.33463	-0.04173 
3793	31.600	-0.05208	1.58423	0.08997	-0.10384	1.37167	0.02789	-0.03668	1.71532	-0.11354	-0.01690	1.58227	0.26764	-0.10299	1.48418	0.08973	-0.01661	1.60411	0.40057	0.10590	1.49162	-0.05805	0.05589	1.81105	0.03642	0.07504	1.82758	-0.06442	-0.09454	1.52658	-0.06657	-0.00152	1.62269	0.69799	0.00710	1.63265	0.53306	0.09495	1.63739	0.67276	0.06092	1.51324	0.41587	0.08414	1.18158	0.12928	0.14263	1.32985	-0.03432	0.06418	1.52973	0.08932	-0.06413	1.71331	-0.01218	-0.10406	1.33462	-0.04172 
3794	31.608	-0.05205	1.58420	0.09000	-0.10379	1.37166	0.02789	-0.03656	1.71572	-0.11363	-0.01722	1.58305	0.26758	-0.10296	1.48417	0.08975	-0.01658	1.60424	0.40054	0.10593	1.49163	-0.05807	0.05591	1.81103	0.03644	0.07531	1.82760	-0.06414	-0.09451	1.52658	-0.06654	-0.00158	1.62292	0.69794	0.00712	1.63281	0.53300	0.09499	1.63758	0.67271	0.06087	1.51333	0.41590	0.08414	1.18156	0.12932	0.14264	1.32984	-0.03433	0.06421	1.52974	0.08933	-0.06411	1.71337	-0.01216	-0.10402	1.33460	-0.04170 
3795	31.617	-0.05204	1.58419	0.09000	-0.10379	1.37170	0.02793	-0.03650	1.71569	-0.11356	-0.01699	1.58274	0.26730	-0.10296	1.48417	0.08975	-0.01660	1.60435	0.40049	0.10593	1.49163	-0.05803	0.05590	1.81099	0.03647	0.07533	1.82759	-0.06411	-0.09448	1.52657	-0.06652	-0.00151	1.62315	0.69795	0.00718	1.63299	0.53299	0.09507	1.63780	0.67265	0.06087	1.51345	0.41590	0.08416	1.18157	0.12931	0.14266	1.32985	-0.03432	0.06425	1.52975	0.08937	-0.06407	1.71328	-0.01216	-0.10399	1.33459	-0.04167 
3796	31.625	-0.05205	1.58417	0.08999	-0.10378	1.37169	0.02796	-0.03649	1.71572	-0.11356	-0.01698	1.58279	0.26730	-0.10294	1.48417	0.08978	-0.01654	1.60444	0.40048	0.10597	1.49161	-0.05800	0.05594	1.81097	0.03650	0.07538	1.82760	-0.06407	-0.09446	1.52657	-0.06650	-0.00147	1.62338	0.69790	0.00721	1.63313	0.53296	0.09471	1.63792	0.67234	0.06087	1.51354	0.41595	0.08415	1.18153	0.12932	0.14269	1.32983	-0.03429	0.06424	1.52973	0.08940	-0.06405	1.71336	-0.01213	-0.10398	1.33460	-0.04164 
3797	31.633	-0.05204	1.58415	0.08998	-0.10376	1.37167	0.02799	-0.03644	1.71575	-0.11351	-0.01698	1.58283	0.26726	-0.10292	1.48414	0.08980	-0.01628	1.60475	0.40056	0.10599	1.49163	-0.05800	0.05598	1.81096	0.03655	0.07542	1.82760	-0.06401	-0.09444	1.52657	-0.06646	-0.00142	1.62364	0.69789	0.00726	1.63330	0.53294	0.09475	1.63810	0.67234	0.06090	1.51364	0.41595	0.08418	1.18154	0.12933	0.14270	1.32980	-0.03426	0.06421	1.52973	0.08938	-0.06406	1.71334	-0.01214	-0.10401	1.33463	-0.04162 
3798	31.642	-0.05200	1.58416	0.08999	-0.10373	1.37166	0.02798	-0.03616	1.71562	-0.11323	-0.01692	1.58286	0.26727	-0.10289	1.48416	0.08983	-0.01653	1.60468	0.40046	0.10600	1.49161	-0.05799	0.05606	1.81098	0.03665	0.07546	1.82758	-0.06397	-0.09442	1.52656	-0.06646	-0.00139	1.62382	0.69786	0.00727	1.63345	0.53290	0.09521	1.63948	0.66957	0.06137	1.51345	0.41608	0.08418	1.18151	0.12933	0.14271	1.32980	-0.03425	0.06423	1.52972	0.08939	-0.06398	1.71336	-0.01209	-0.10403	1.33465	-0.04161 
3799	31.650	-0.05206	1.58412	0.08999	-0.10371	1.37165	0.02800	-0.03609	1.71560	-0.11320	-0.01691	1.58292	0.26727	-0.10289	1.48414	0.08983	-0.01656	1.60477	0.40039	0.10602	1.49161	-0.05796	0.05607	1.81094	0.03666	0.07552	1.82758	-0.06394	-0.09439	1.52655	-0.06644	-0.00136	1.62402	0.69782	0.00727	1.63361	0.53289	0.09480	1.63817	0.67225	0.06145	1.51363	0.41613	0.08420	1.18152	0.12934	0.14270	1.32981	-0.03422	0.06421	1.52971	0.08941	-0.06404	1.71271	-0.01229	-0.10404	1.33465	-0.04160 
3800	31.658	-0.05199	1.58414	0.09003	-0.10368	1.37165	0.02804	-0.03605	1.71564	-0.11316	-0.01703	1.58232	0.26722	-0.10289	1.48412	0.08985	-0.01624	1.60500	0.40052	0.10615	1.49150	-0.05786	0.05611	1.81093	0.03673	0.07561	1.82757	-0.06388	-0.09439	1.52655	-0.06644	-0.00132	1.62426	0.69781	0.00729	1.63372	0.53285	0.09484	1.63838	0.67218	0.06148	1.51374	0.41613	0.08417	1.18153	0.12937	0.14274	1.32982	-0.03423	0.06423	1.52971	0.08942	-0.06395	1.71333	-0.01206	-0.10400	1.33464	-0.04158 
3801	31.667	-0.05197	1.58412	0.09004	-0.10367	1.37165	0.02805	-0.03604	1.71565	-0.11315	-0.01692	1.58299	0.26725	-0.10289	1.48412	0.08988	-0.01623	1.60510	0.40050	0.10615	1.49151	-0.05783	0.05613	1.81093	0.03673	0.07537	1.82762	-0.06404	-0.09436	1.52653	-0.06641	-0.00125	1.62447	0.69782	0.00732	1.63389	0.53282	0.09532	1.63904	0.67240	0.06148	1.51387	0.41613	0.08418	1.18151	0.12939	0.14277	1.32979	-0.03414	0.06426	1.52970	0.08943	-0.06396	1.71335	-0.01203	-0.10393	1.33461	-0.04156 
3802	31.675	-0.05200	1.58411	0.09003	-0.10365	1.37164	0.02808	-0.03591	1.71544	-0.11314	-0.01690	1.58303	0.26723	-0.10286	1.48412	0.08988	-0.01628	1.60519	0.40046	0.10608	1.49161	-0.05790	0.05617	1.81093	0.03679	0.07569	1.82762	-0.06376	-0.09436	1.52655	-0.06636	-0.00068	1.62326	0.69738	0.00737	1.63408	0.53280	0.09534	1.63923	0.67235	0.06156	1.51400	0.41614	0.08415	1.18150	0.12940	0.14278	1.32980	-0.03410	0.06426	1.52970	0.08946	-0.06390	1.71335	-0.01197	-0.10389	1.33458	-0.04153 
3803	31.683	-0.05197	1.58411	0.09002	-0.10364	1.37164	0.02808	-0.03598	1.71565	-0.11310	-0.01705	1.58279	0.26691	-0.10284	1.48413	0.08991	-0.01622	1.60533	0.40041	0.10618	1.49150	-0.05778	0.05620	1.81091	0.03681	0.07549	1.82757	-0.06395	-0.09431	1.52655	-0.06634	-0.00065	1.62352	0.69737	0.00741	1.63424	0.53279	0.09498	1.63903	0.67206	0.06159	1.51412	0.41615	0.08416	1.18150	0.12945	0.14279	1.32981	-0.03406	0.06430	1.52971	0.08944	-0.06390	1.71341	-0.01195	-0.10385	1.33455	-0.04150 
3804	31.692	-0.05191	1.58412	0.09005	-0.10362	1.37163	0.02811	-0.03598	1.71567	-0.11305	-0.01700	1.58287	0.26695	-0.10283	1.48412	0.08994	-0.01621	1.60543	0.40038	0.10611	1.49160	-0.05783	0.05625	1.81094	0.03688	0.07574	1.82762	-0.06370	-0.09431	1.52654	-0.06632	-0.00107	1.62531	0.69782	0.00746	1.63440	0.53273	0.09542	1.63967	0.67229	0.06166	1.51426	0.41617	0.08414	1.18149	0.12945	0.14284	1.32979	-0.03405	0.06434	1.52973	0.08945	-0.06390	1.71343	-0.01189	-0.10381	1.33453	-0.04148 
3805	31.700	-0.05193	1.58407	0.09003	-0.10360	1.37163	0.02815	-0.03595	1.71568	-0.11300	-0.01685	1.58319	0.26718	-0.10279	1.48412	0.08996	-0.01612	1.60552	0.40038	0.10615	1.49160	-0.05781	0.05627	1.81091	0.03690	0.07579	1.82755	-0.06368	-0.09429	1.52655	-0.06631	-0.00104	1.62555	0.69777	0.00750	1.63458	0.53267	0.09545	1.63985	0.67229	0.06162	1.51433	0.41620	0.08416	1.18150	0.12949	0.14282	1.32978	-0.03401	0.06435	1.52974	0.08950	-0.06390	1.71338	-0.01188	-0.10379	1.33454	-0.04147 
3806	31.708	-0.05189	1.58408	0.09005	-0.10358	1.37165	0.02816	-0.03582	1.71545	-0.11299	-0.01678	1.58327	0.26720	-0.10278	1.48413	0.08999	-0.01608	1.60567	0.40031	0.10617	1.49160	-0.05779	0.05628	1.81090	0.03694	0.07584	1.82764	-0.06354	-0.09424	1.52656	-0.06626	-0.00093	1.62590	0.69775	0.00760	1.63479	0.53261	0.09549	1.64006	0.67224	0.06157	1.51440	0.41623	0.08415	1.18148	0.12953	0.14281	1.32974	-0.03400	0.06437	1.52972	0.08953	-0.06385	1.71338	-0.01184	-0.10379	1.33457	-0.04146 
3807	31.717	-0.05183	1.58407	0.09008	-0.10355	1.37167	0.02820	-0.03607	1.71556	-0.11325	-0.01691	1.58303	0.26693	-0.10277	1.48411	0.09004	-0.01609	1.60578	0.40034	0.10620	1.49159	-0.05781	0.05633	1.81089	0.03702	0.07580	1.82757	-0.06361	-0.09422	1.52655	-0.06625	-0.00091	1.62619	0.69768	0.00764	1.63498	0.53257	0.09550	1.64021	0.67232	0.06158	1.51451	0.41624	0.08414	1.18148	0.12951	0.14282	1.32973	-0.03396	0.06438	1.52971	0.08953	-0.06386	1.71333	-0.01183	-0.10381	1.33461	-0.04144 
3808	31.725	-0.05179	1.58403	0.09010	-0.10353	1.37164	0.02821	-0.03589	1.71567	-0.11290	-0.01673	1.58337	0.26714	-0.10274	1.48410	0.09004	-0.01599	1.60592	0.40033	0.10621	1.49157	-0.05779	0.05631	1.81087	0.03704	0.07586	1.82765	-0.06348	-0.09418	1.52654	-0.06622	-0.00079	1.62646	0.69767	0.00775	1.63517	0.53256	0.09557	1.64044	0.67232	0.06159	1.51464	0.41625	0.08416	1.18149	0.12955	0.14285	1.32971	-0.03393	0.06439	1.52969	0.08952	-0.06387	1.71338	-0.01183	-0.10381	1.33462	-0.04142 
3809	31.733	-0.05184	1.58401	0.09010	-0.10662	1.37476	0.02850	-0.03575	1.71547	-0.11290	-0.01685	1.58318	0.26691	-0.10272	1.48407	0.09007	-0.01590	1.60607	0.40032	0.10626	1.49158	-0.05775	0.05633	1.81089	0.03708	0.07587	1.82766	-0.06346	-0.09416	1.52657	-0.06621	-0.00074	1.62675	0.69763	0.00781	1.63541	0.53252	0.09568	1.64067	0.67231	0.06173	1.51484	0.41629	0.08417	1.18149	0.12959	0.14288	1.32971	-0.03390	0.06442	1.52973	0.08957	-0.06385	1.71334	-0.01180	-0.10381	1.33462	-0.04140 
3810	31.742	-0.05179	1.58398	0.09012	-0.10354	1.37165	0.02825	-0.03575	1.71546	-0.11288	-0.01678	1.58323	0.26691	-0.10271	1.48405	0.09009	-0.01586	1.60624	0.40027	0.10638	1.49146	-0.05765	0.05635	1.81089	0.03712	0.07586	1.82765	-0.06344	-0.09411	1.52655	-0.06617	-0.00069	1.62700	0.69761	0.00788	1.63563	0.53245	0.09571	1.64091	0.67232	0.06176	1.51498	0.41631	0.08418	1.18148	0.12962	0.14289	1.32969	-0.03387	0.06441	1.52969	0.08957	-0.06382	1.71332	-0.01178	-0.10381	1.33462	-0.04137 
3811	31.750	-0.05174	1.58398	0.09015	-0.10350	1.37163	0.02829	-0.03574	1.71543	-0.11286	-0.01679	1.58330	0.26684	-0.10268	1.48404	0.09012	-0.01579	1.60641	0.40024	0.10643	1.49147	-0.05760	0.05634	1.81090	0.03710	0.07590	1.82764	-0.06343	-0.09409	1.52653	-0.06615	-0.00064	1.62738	0.69756	0.00804	1.63586	0.53243	0.09582	1.64118	0.67227	0.06176	1.51513	0.41630	0.08415	1.18145	0.12960	0.14292	1.32967	-0.03383	0.06441	1.52963	0.08957	-0.06379	1.71337	-0.01174	-0.10379	1.33460	-0.04136 
